<?xml version="1.0" standalone="no"?>
<!DOCTYPE svg PUBLIC "-//W3C//DTD SVG 20010904//EN"
 "http://www.w3.org/TR/2001/REC-SVG-20010904/DTD/svg10.dtd">
<svg version="1.0" xmlns="http://www.w3.org/2000/svg"
 width="138.000000pt" height="138.000000pt" viewBox="0 0 138.000000 138.000000"
 preserveAspectRatio="xMidYMid meet">
<metadata>
Created by potrace 1.11, written by Peter Selinger 2001-2013
</metadata>
<g transform="translate(0.000000,138.000000) scale(0.100000,-0.100000)"
fill="#000000" stroke="none">
<path d="M123 1020 c-15 -4 -18 -16 -19 -62 0 -31 3 -55 8 -52 4 3 8 2 8 -3 0
-4 11 -8 25 -8 14 0 25 4 25 8 0 4 8 3 18 -2 10 -5 24 -6 32 -1 8 5 21 5 31 0
9 -5 19 -6 23 -2 17 17 21 -33 20 -277 -1 -247 0 -261 18 -262 23 -2 104 -2
123 0 13 1 15 38 15 272 0 266 0 271 20 266 11 -3 20 -1 20 4 0 6 7 6 18 0 10
-5 24 -6 32 -1 8 5 21 6 29 2 9 -4 27 -7 41 -7 24 0 25 4 28 63 2 34 -1 62 -5
63 -36 4 -496 3 -510 -1z"/>
<path d="M805 1003 c-81 -44 -118 -110 -108 -193 7 -72 98 -159 183 -176 8 -2
16 -8 18 -14 2 -5 8 -8 13 -4 5 3 9 0 9 -7 0 -7 3 -9 6 -6 12 12 62 -32 67
-59 5 -31 -29 -73 -60 -75 -10 0 -33 -1 -51 -2 -19 -1 -36 1 -39 6 -2 4 -9 5
-14 1 -5 -3 -16 0 -24 6 -8 7 -15 10 -15 6 0 -9 -55 20 -74 39 -9 9 -16 13
-17 8 -5 -54 -4 -125 2 -140 11 -29 106 -46 222 -41 84 3 101 7 143 34 59 36
86 80 90 147 5 89 -32 142 -134 193 -31 16 -60 34 -64 39 -4 6 -8 7 -8 2 0
-11 -52 18 -71 39 -26 31 -29 51 -9 74 35 40 160 40 232 0 10 -6 20 -10 23
-10 3 0 5 31 5 69 l0 69 -47 12 c-26 6 -90 10 -143 8 -75 -2 -103 -7 -135 -25z"/>
</g>
</svg>
